<?xml version="1.0" encoding="UTF-8" standalone="no"?>
<!-- Created with Inkscape (http://www.inkscape.org/) -->

<svg
   version="1.1"
   id="svg2"
   xml:space="preserve"
   width="6666.6665"
   height="6666.6665"
   viewBox="0 0 6666.6665 6666.6665"
   sodipodi:docname="logo-house.eps"
   xmlns:inkscape="http://www.inkscape.org/namespaces/inkscape"
   xmlns:sodipodi="http://sodipodi.sourceforge.net/DTD/sodipodi-0.dtd"
   xmlns="http://www.w3.org/2000/svg"
   xmlns:svg="http://www.w3.org/2000/svg"><defs
     id="defs6" /><sodipodi:namedview
     id="namedview4"
     pagecolor="#ffffff"
     bordercolor="#666666"
     borderopacity="1.0"
     inkscape:pageshadow="2"
     inkscape:pageopacity="0.0"
     inkscape:pagecheckerboard="0" /><g
     id="g8"
     inkscape:groupmode="layer"
     inkscape:label="ink_ext_XXXXXX"
     transform="matrix(1.3333333,0,0,-1.3333333,0,6666.6667)"><g
       id="g10"
       transform="scale(0.1)"><path
         d="M 50000,0 H 0 V 50000 H 50000 V 0"
         style="fill:#ffffff;fill-opacity:1;fill-rule:nonzero;stroke:none"
         id="path12" /><path
         d="m 27592,33560.2 c 14.4,-43.5 30.3,-84.2 44,-128.8 25.8,-83.6 49,-169 71.9,-254.7 l 458.2,-242.3 1174.1,738.5 -1748.2,-112.7"
         style="fill:#f3621e;fill-opacity:1;fill-rule:nonzero;stroke:none"
         id="path14" /><path
         d="m 29251.4,34213.4 -3044.6,1614.1 c 540.7,-518 1049,-1248.2 1385.2,-2267.3 l 1748.2,112.7 -88.8,540.5"
         style="fill:#f58615;fill-opacity:1;fill-rule:nonzero;stroke:none"
         id="path16" /><path
         d="m 29609.4,34023.6 -358,189.8 88.8,-540.5 z"
         style="fill:#f68d15;fill-opacity:1;fill-rule:nonzero;stroke:none"
         id="path18" /><path
         d="m 28166.1,32934.4 708.7,-374.7 465.4,1113.2 z"
         style="fill:#db2c23;fill-opacity:1;fill-rule:nonzero;stroke:none"
         id="path20" /><path
         d="m 32693.8,32388.4 -2503.9,1327.5 -849.7,-43 z"
         style="fill:#ef2f33;fill-opacity:1;fill-rule:nonzero;stroke:none"
         id="path22" /><path
         d="m 29340.2,33672.9 849.7,43 -580.5,307.7 z"
         style="fill:#f7ab0c;fill-opacity:1;fill-rule:nonzero;stroke:none"
         id="path24" /><path
         d="m 32512.3,30929.2 c 64.2,131.5 129,259.2 195.9,380.7 161.9,294.2 285.8,590.3 370.6,874.4 l -385,204.1 -3353.6,1284.5 3172.1,-2743.7"
         style="fill:#ec1a36;fill-opacity:1;fill-rule:nonzero;stroke:none"
         id="path26" /><path
         d="m 28874.8,32559.7 3525.7,-1864.2 c 37,81 74.4,157.2 111.8,233.7 l -3172.1,2743.7 -465.4,-1113.2"
         style="fill:#ed4626;fill-opacity:1;fill-rule:nonzero;stroke:none"
         id="path28" /><path
         d="m 36816.4,29185.2 h 1635.1 l 22.3,138.9 -911.5,483.2 -2305.3,-1580 v -2506 l 1559.4,-5949.4 v 9413.3"
         style="fill:#6fd0eb;fill-opacity:1;fill-rule:nonzero;stroke:none"
         id="path30" /><path
         d="M 36816.4,19771.9 35257,25721.3 v -5063.7 l 1559.4,-1120.2 v 234.5"
         style="fill:#3fadb4;fill-opacity:1;fill-rule:nonzero;stroke:none"
         id="path32" /><path
         d="m 33394.4,21995.6 c 166.1,388.5 316.6,801.8 443,1247.7 81.7,288.1 134.5,585.4 136.3,884.9 7,1135 -593.7,1912.6 -1340.2,2301.1 l -2769.2,-1898 3530.1,-2535.7"
         style="fill:#3fadb4;fill-opacity:1;fill-rule:nonzero;stroke:none"
         id="path34" /><path
         d="m 29716,24577.8 c -4.3,-18.3 -9.9,-38.2 -14.5,-57 l 162.8,10.5 -148.3,46.5"
         style="fill:#f3621e;fill-opacity:1;fill-rule:nonzero;stroke:none"
         id="path36" /><path
         d="M 36816.4,19537.4 35257,20657.6 v -1409.7 l 1559.4,224.2 v 65.3"
         style="fill:#f25c20;fill-opacity:1;fill-rule:nonzero;stroke:none"
         id="path38" /><path
         d="m 33394.4,21995.6 -3530.1,2535.7 -186.9,-104.9 c -258.6,-973 -919.5,-2433.6 -2617.5,-3401.3 -587.3,-334.7 -1232.8,-555 -1897,-681 -1147.4,-217.7 -2122.1,-219.6 -2969.3,-120 l -846.9,-475.5 393.7,-2393.7 c 25.9,-13.2 51.8,-26.3 78,-39.3 l 9113.1,1310.3 c 917.2,781.2 1821,1868.8 2462.9,3369.7"
         style="fill:#f25c20;fill-opacity:1;fill-rule:nonzero;stroke:none"
         id="path40" /><path
         d="m 19639.8,18789.9 c 603.6,-497.2 1281.1,-1018.1 2100.6,-1435 l -393.7,2393.7 -1706.9,-958.7"
         style="fill:#f25c20;fill-opacity:1;fill-rule:nonzero;stroke:none"
         id="path42" /><path
         d="m 29701.5,24520.8 c -7.7,-31 -15.6,-62.3 -24.1,-94.4 l 186.9,104.9 -162.8,-10.5"
         style="fill:#f58615;fill-opacity:1;fill-rule:nonzero;stroke:none"
         id="path44" /><path
         d="m 22193.6,20224.1 c -336.4,39.6 -652.9,94.6 -951.2,159.6 l 104.3,-635.1 846.9,475.5"
         style="fill:#f58615;fill-opacity:1;fill-rule:nonzero;stroke:none"
         id="path46" /><path
         d="m 21242.4,20383.7 c -1113.7,242.4 -1981.5,612 -2738.8,746.6 l -724.1,-942.9 c 594.2,-311.1 1181.3,-838.2 1860.3,-1397.5 l 1706.9,958.7 -104.3,635.1"
         style="fill:#f68d15;fill-opacity:1;fill-rule:nonzero;stroke:none"
         id="path48" /><path
         d="m 38735.9,29185.2 -262.1,138.9 -22.3,-138.9 z"
         style="fill:#3daaaf;fill-opacity:1;fill-rule:nonzero;stroke:none"
         id="path50" /><path
         d="m 14623.9,26249.1 -1499.7,574.6 v -3266.9 l 1499.7,75.7 v 2616.6"
         style="fill:#ef2f33;fill-opacity:1;fill-rule:nonzero;stroke:none"
         id="path52" /><path
         d="M 36816.4,19472.1 35257,19247.9 v -1043.3 l 1559.4,1219.2 v 48.3"
         style="fill:#f58615;fill-opacity:1;fill-rule:nonzero;stroke:none"
         id="path54" /><path
         d="m 32534.8,16076.4 c -2079.5,304.4 -4083,476.1 -5991.5,539.7 247.1,31.7 500.9,71.6 763.7,122.7 0,0 1834,362.1 3624.5,1887.1 l -9113.1,-1310.3 c 42.4,-21 84.5,-42.1 127.7,-62.5 l 9025.9,-2398.5 1562.8,1221.8"
         style="fill:#f58615;fill-opacity:1;fill-rule:nonzero;stroke:none"
         id="path56" /><path
         d="m 16842,16056 -191.6,-1547 c 528.1,42.9 1051.8,80.5 1571.8,114.2 950.4,719.7 1816.4,1378.4 2452.8,1863.3 -1350.4,-103.3 -2632.3,-250.6 -3833,-430.5"
         style="fill:#f25b1f;fill-opacity:1;fill-rule:nonzero;stroke:none"
         id="path58" /><path
         d="m 14623.9,23632.5 -1499.7,-75.7 v -2378.4 l 1499.7,-1499.9 v 3954"
         style="fill:#f7ab0c;fill-opacity:1;fill-rule:nonzero;stroke:none"
         id="path60" /><path
         d="m 16408.9,20448.1 c 487.9,81.6 931.3,-30.8 1370.6,-260.7 l 724.1,942.9 c -762.4,135.5 -1414.1,32.3 -2094.7,-682.2"
         style="fill:#f7ab0c;fill-opacity:1;fill-rule:nonzero;stroke:none"
         id="path62" /><path
         d="m 37088.1,30058.8 -1948,-295 -1194.6,960.2 257.4,-981.4 1054.1,-557.4 v -957.9 l 2305.3,1580 -474.2,251.5"
         style="fill:#42aace;fill-opacity:1;fill-rule:nonzero;stroke:none"
         id="path64" /><path
         d="m 29771.7,24837.1 c -14.9,-79.9 -34,-167.5 -55.7,-259.3 l 148.3,-46.5 -92.6,305.8"
         style="fill:#f68d15;fill-opacity:1;fill-rule:nonzero;stroke:none"
         id="path66" /><path
         d="m 36816.4,15274.5 v 4149.3 L 35257,18204.6 v -2595.4 c -921.6,183.5 -1828.2,336.3 -2722.2,467.2 l -1562.8,-1221.8 1018.6,-270.5 c 4848.4,-333 8609.2,-925.5 10698.1,-1311.4 l -417,446.7 c -1857.2,632.7 -3678.9,1146.9 -5455.3,1555.1"
         style="fill:#fabb0d;fill-opacity:1;fill-rule:nonzero;stroke:none"
         id="path68" /><path
         d="m 42688.7,13272.7 c 1187.5,-219.4 1834.9,-372 1834.9,-372 -756.3,293.9 -1506.7,564.9 -2251.9,818.7 l 417,-446.7"
         style="fill:#f69411;fill-opacity:1;fill-rule:nonzero;stroke:none"
         id="path70" /><path
         d="m 20675,16486.5 c -636.4,-484.9 -1502.4,-1143.6 -2452.8,-1863.3 1307.2,84.7 2588,142 3836.2,174.7 l -218.1,1764.8 c -394.1,-21.5 -782.4,-46.9 -1165.3,-76.2"
         style="fill:#f37216;fill-opacity:1;fill-rule:nonzero;stroke:none"
         id="path72" /><path
         d="m 30727,14663.2 c 428.8,-24.3 850.3,-50.7 1263.6,-79.1 l -1018.6,270.5 -245,-191.4"
         style="fill:#f37216;fill-opacity:1;fill-rule:nonzero;stroke:none"
         id="path74" /><path
         d="m 14623.9,15676.3 v 401.9 l -1474,-1919.4 c 1183,141 2351,256.8 3500.5,350.2 l 191.6,1547 c -771.9,-115.6 -1513.6,-242.9 -2218.1,-379.7"
         style="fill:#f79713;fill-opacity:1;fill-rule:nonzero;stroke:none"
         id="path76" /><path
         d="m 21946.1,17253.1 c 577.3,-272.7 1223.6,-491.7 1962.6,-614.2 -706.4,-11.2 -1393.3,-39.4 -2068.4,-76.2 l 218.1,-1764.8 c 3118.4,81.8 6035.6,14.6 8668.6,-134.7 l 245,191.4 -9025.9,2398.5"
         style="fill:#f79713;fill-opacity:1;fill-rule:nonzero;stroke:none"
         id="path78" /><path
         d="m 14623.9,19678.5 -1499.7,1499.9 v -5816.5 c -419.9,-94.6 -823.8,-191.5 -1213.1,-289.5 l 132.2,-1052.4 c 370.2,48.7 739.2,95 1106.6,138.8 l 1474,1919.4 v 3600.3"
         style="fill:#f79014;fill-opacity:1;fill-rule:nonzero;stroke:none"
         id="path80" /><path
         d="m 5476.36,12900.7 c 2220.75,469 4416.38,836.3 6566.94,1119.3 l -132.2,1052.4 C 7840.06,14047.8 5476.36,12900.7 5476.36,12900.7"
         style="fill:#f36f16;fill-opacity:1;fill-rule:nonzero;stroke:none"
         id="path82" /><path
         d="m 14327.5,29387.8 -1203.3,-840.2 v -1235.1 l 1212.6,2073.6 -9.3,1.7"
         style="fill:#d71741;fill-opacity:1;fill-rule:nonzero;stroke:none"
         id="path84" /><path
         d="m 14623.9,29125.4 23.5,12.8 -279.9,242.2 -30.7,5.7 -1212.6,-2073.6 v -488.8 l 1499.7,-574.6 v 2876.3"
         style="fill:#ec1a36;fill-opacity:1;fill-rule:nonzero;stroke:none"
         id="path86" /><path
         d="m 14367.5,29380.4 279.9,-242.2 193.8,106.1 -375.9,117.9 -97.8,18.2"
         style="fill:#ed4626;fill-opacity:1;fill-rule:nonzero;stroke:none"
         id="path88" /><path
         d="m 13682.4,29507.9 -1406.5,262.1 -1011.3,-584.8 h 1859.6 v -637.6 l 1203.3,840.2 -645.1,120.1"
         style="fill:#e8183b;fill-opacity:1;fill-rule:nonzero;stroke:none"
         id="path90" /><path
         d="m 32633.5,26429.3 c -1022.1,531.8 -2318.3,332.7 -2708,-690.5 -50.8,-133.4 -76.6,-275.2 -87.7,-417.5 -8.2,-103.6 -26.2,-271.2 -66.1,-484.2 l 92.6,-305.8 2769.2,1898"
         style="fill:#358ea6;fill-opacity:1;fill-rule:nonzero;stroke:none"
         id="path92" /><path
         d="m 33651,30960.8 c -92.5,-198.3 -189,-394.6 -286.2,-586.2 -10.6,-21.7 -35.7,-74.8 -68.5,-152.7 l 906.6,-479.3 -257.4,981.4 -294.5,236.8"
         style="fill:#47bad4;fill-opacity:1;fill-rule:nonzero;stroke:none"
         id="path94" /><path
         d="m 14841.2,29244.3 65.4,35.7 -441.3,82.2 z"
         style="fill:#ec1842;fill-opacity:1;fill-rule:nonzero;stroke:none"
         id="path96" /><path
         d="m 16243.3,35098.4 v -2498.6 l 710.1,-209.9 z"
         style="fill:#42aace;fill-opacity:1;fill-rule:nonzero;stroke:none"
         id="path98" /><path
         d="m 16953.4,32389.9 -710.1,209.9 V 32064 l -688.3,-398 1563,97.7 -164.6,626.2"
         style="fill:#41afb6;fill-opacity:1;fill-rule:nonzero;stroke:none"
         id="path100" /><path
         d="m 17118,31763.7 -1563,-97.7 -3279.1,-1896 1406.5,-262.1 3435.6,2255.8"
         style="fill:#348aa3;fill-opacity:1;fill-rule:nonzero;stroke:none"
         id="path102" /><path
         d="m 37088.1,30058.8 -1707.7,905.3 -240.3,-1200.3 z"
         style="fill:#ef2b50;fill-opacity:1;fill-rule:nonzero;stroke:none"
         id="path104" /><path
         d="m 35140.1,29763.8 240.3,1200.3 -1411.4,748.3 c -92.6,-251.7 -202,-503.3 -318,-751.6 l 294.5,-236.8 1194.6,-960.2"
         style="fill:#d71741;fill-opacity:1;fill-rule:nonzero;stroke:none"
         id="path106" /><path
         d="m 16953.4,32389.9 164.6,-626.2 1675.3,-357.3 2880.1,1575.6 c -97.9,637.2 163,1214.7 433.4,1811.9 25.4,56.1 50.9,115.6 76.5,173 l -47.2,156.1 -3913.5,-2099 v 164.2 l -1269.2,-798.3"
         style="fill:#42aace;fill-opacity:1;fill-rule:nonzero;stroke:none"
         id="path108" /><path
         d="m 17118,31763.7 -3435.6,-2255.8 1959.3,174.3 3151.6,1724.2 -1675.3,357.3"
         style="fill:#47bad4;fill-opacity:1;fill-rule:nonzero;stroke:none"
         id="path110" /><path
         d="m 13682.4,29507.9 645.1,-120.1 9.3,-1.7 30.7,-5.7 97.8,-18.2 441.3,-82.2 735.1,402.2 -1959.3,-174.3"
         style="fill:#5fcbee;fill-opacity:1;fill-rule:nonzero;stroke:none"
         id="path112" /><path
         d="m 16953.4,32389.9 1269.2,798.3 v 2294.7 h -1979.3 v -384.5 l 710.1,-2708.5"
         style="fill:#47bad4;fill-opacity:1;fill-rule:nonzero;stroke:none"
         id="path114" /><path
         d="m 22288.7,35204.9 -152.6,-81.9 47.2,-156.1 c 35.3,78.9 70.7,156.4 105.4,238"
         style="fill:#47bad4;fill-opacity:1;fill-rule:nonzero;stroke:none"
         id="path116" /><path
         d="m 22947.5,37860 c 5,-32.8 7.7,-63.8 12.1,-96.1 l 34.5,58.9 c -28.9,23.8 -46.6,37.2 -46.6,37.2"
         style="fill:#ef2f33;fill-opacity:1;fill-rule:nonzero;stroke:none"
         id="path118" /><path
         d="m 24184.2,34487.4 c 130.6,622.2 79.8,1168.9 -59.4,1631.3 l -1487.7,-1038.7 1547.1,-592.6"
         style="fill:#8b1631;fill-opacity:1;fill-rule:nonzero;stroke:none"
         id="path120" /><path
         d="m 22994.1,37822.8 -34.5,-58.9 c 153,-1123.4 -104,-1955.2 -399.9,-2654.2 l 77.4,-29.7 1487.7,1038.7 c -289.4,961.3 -951.4,1557.1 -1130.7,1704.1"
         style="fill:#ec1a38;fill-opacity:1;fill-rule:nonzero;stroke:none"
         id="path122" /><path
         d="m 22559.7,35109.7 c -17.1,-40.5 -34.4,-80.1 -51.7,-119.8 l 129.1,90.1 -77.4,29.7"
         style="fill:#d71741;fill-opacity:1;fill-rule:nonzero;stroke:none"
         id="path124" /><path
         d="m 22647.3,31814.2 c 288.3,310.6 526.8,610.5 728.5,901.2 l -1435.9,450.5 c 25.1,-415.1 219.6,-847.9 707.4,-1351.7"
         style="fill:#ec1747;fill-opacity:1;fill-rule:nonzero;stroke:none"
         id="path126" /><path
         d="m 22508,34989.9 c -294.7,-674.8 -603.8,-1231.7 -568.1,-1824 l 1435.9,-450.5 c 446.3,642.8 695.8,1235.3 808.4,1772 l -1547.1,592.6 -129.1,-90.1"
         style="fill:#e8183b;fill-opacity:1;fill-rule:nonzero;stroke:none"
         id="path128" /><path
         d="m 25202.3,32104.9 -1620.5,-81.9 c -855.5,-1018.1 -1942,-1787.5 -2573.4,-3000.4 l 1953.2,-748.2 2240.7,3830.5"
         style="fill:#ef2f33;fill-opacity:1;fill-rule:nonzero;stroke:none"
         id="path130" /><path
         d="m 19861.8,29652.4 c -54.7,-41.7 -107.5,-85.6 -160.7,-129.1 l 147.9,-56.6 c 6.4,117.9 12.8,185.7 12.8,185.7"
         style="fill:#ef2f33;fill-opacity:1;fill-rule:nonzero;stroke:none"
         id="path132" /><path
         d="m 24273,33034.1 c -197,-372.2 -432.8,-703.7 -691.2,-1011.1 l 1620.5,81.9 -929.3,929.2"
         style="fill:#f7ab0c;fill-opacity:1;fill-rule:nonzero;stroke:none"
         id="path134" /><path
         d="m 27016.8,26721.1 c 342.8,1186.4 544.9,2250.7 628.6,3199.7 l -3182,-2221.7 2553.4,-978"
         style="fill:#8b1631;fill-opacity:1;fill-rule:nonzero;stroke:none"
         id="path136" /><path
         d="m 29497.9,25770.8 c -164.9,821.8 -496.7,1703.6 -1038.3,2638.4 -383.5,-925.8 -881.6,-1485 -1207.4,-1778.3 l 2245.7,-860.1"
         style="fill:#8b1631;fill-opacity:1;fill-rule:nonzero;stroke:none"
         id="path138" /><path
         d="m 22961.6,28274.4 1501.8,-575.3 3182,2221.7 c 158.7,1796.9 -100,3185.6 -597.3,4233.3 l -1845.8,-2049.2 -2240.7,-3830.5"
         style="fill:#ec1a38;fill-opacity:1;fill-rule:nonzero;stroke:none"
         id="path140" /><path
         d="m 24825.6,35105.5 c -45.6,-833.7 -251.4,-1502.3 -552.6,-2071.4 l 929.3,-929.2 -376.7,3000.6"
         style="fill:#f79014;fill-opacity:1;fill-rule:nonzero;stroke:none"
         id="path142" /><path
         d="m 25202.3,32104.9 1845.8,2049.2 c -126.7,267 -268.7,512.1 -423.5,735.8 l -1422.3,-2785"
         style="fill:#ee3043;fill-opacity:1;fill-rule:nonzero;stroke:none"
         id="path144" /><path
         d="m 26624.6,34889.9 c -515.6,745.4 -1170,1257.9 -1854.8,1576.6 64.4,-500.8 78.2,-949.6 55.8,-1361 l 376.7,-3000.6 1422.3,2785"
         style="fill:#f36f16;fill-opacity:1;fill-rule:nonzero;stroke:none"
         id="path146" /><path
         d="m 21356.7,25530.6 -947.3,-4730.3 c 789.7,-228.6 1725.9,-443.9 2858.8,-443.9 0.1,0 0.2,0 0.3,0 600,0 1224.8,60.8 1857.3,180.8 526.4,99.9 1015.7,257.7 1462.6,467.4 l -5231.7,4526"
         style="fill:#ef2b50;fill-opacity:1;fill-rule:nonzero;stroke:none"
         id="path148" /><path
         d="m 21356.7,25530.6 -3707.8,-2382.8 c 194.8,-655.6 518.5,-1281.4 984.6,-1841.8 359.9,-71.9 739.6,-189.5 1154,-318 195.9,-60.8 404.4,-124.7 621.9,-187.7 l 947.3,4730.3"
         style="fill:#d71741;fill-opacity:1;fill-rule:nonzero;stroke:none"
         id="path150" /><path
         d="m 21356.7,25530.6 3106.7,2168.5 -1501.8,575.3 z"
         style="fill:#d71741;fill-opacity:1;fill-rule:nonzero;stroke:none"
         id="path152" /><path
         d="m 19849,29466.7 -147.9,56.6 c -505.6,-414.7 -936.9,-907.2 -1283.7,-1450.3 l 1754.9,-1517.9 c -377.8,1116.5 -349.6,2433.4 -323.3,2911.6"
         style="fill:#ec1a36;fill-opacity:1;fill-rule:nonzero;stroke:none"
         id="path154" /><path
         d="m 21356.7,25530.6 1604.9,2743.8 -1953.2,748.2 c -373,-716.6 -586.9,-1588.4 -499,-2759.1 l 847.3,-732.9"
         style="fill:#ec1a36;fill-opacity:1;fill-rule:nonzero;stroke:none"
         id="path156" /><path
         d="m 21356.7,25530.6 5231.7,-4526 c 127.8,59.9 253.3,122.6 373.7,191.2 963.3,549.1 1578.6,1268 1974.8,1956.7 l -7580.2,2378.1"
         style="fill:#ec1747;fill-opacity:1;fill-rule:nonzero;stroke:none"
         id="path158" /><path
         d="M 20172.3,26555.1 18417.4,28073 c -281.9,-441.8 -507.6,-916.5 -672.5,-1409.3 l 2781.8,-872.7 c -146.2,232.9 -262.4,492.3 -354.4,764.1"
         style="fill:#ed4626;fill-opacity:1;fill-rule:nonzero;stroke:none"
         id="path160" /><path
         d="m 21356.7,25530.6 -847.3,732.9 c 11.6,-155.4 29.6,-317.1 52.3,-483.5 l 795,-249.4"
         style="fill:#ed4626;fill-opacity:1;fill-rule:nonzero;stroke:none"
         id="path162" /><path
         d="m 21356.7,25530.6 7580.2,-2378.1 c 431.1,749.5 602.2,1463.2 667.7,1881.6 -20.1,239.6 -56.3,485.6 -106.7,736.7 l -2245.7,860.1 c -202.3,-182.1 -338.5,-262.3 -338.5,-262.3 36.6,119.5 69.3,235.5 103.1,352.5 l -2553.4,978 -3106.7,-2168.5"
         style="fill:#e8183b;fill-opacity:1;fill-rule:nonzero;stroke:none"
         id="path164" /><path
         d="m 21356.7,25530.6 -795,249.4 c 2.5,-18.7 3.3,-35.7 6,-54.5 -14.2,21.3 -27.3,43.7 -41,65.5 l -2781.8,872.7 c -380.8,-1138.5 -435.7,-2372.5 -96,-3515.9 l 3707.8,2382.8"
         style="fill:#ec1842;fill-opacity:1;fill-rule:nonzero;stroke:none"
         id="path166" /><path
         d="m 32960.1,31171.4 c -206.2,-374.5 -381.1,-765 -540.7,-1161.6 -30.2,-75.3 -57.1,-141.2 -82.3,-202.7 l 32.8,-4.5 1588.5,3028.1 c 53.1,492.9 -31.8,939.9 -331.4,1312.6 l -342,-272 c 396.7,-646.6 216.5,-1716.6 -324.9,-2699.9"
         style="fill:#6fd0eb;fill-opacity:1;fill-rule:nonzero;stroke:none"
         id="path168" /><path
         d="m 32824.2,29739.2 c 95.7,338.9 209,609.2 285.2,765.2 412,811.9 772.4,1616.2 849,2326.3 l -1588.5,-3028.1 454.3,-63.4"
         style="fill:#3fadb4;fill-opacity:1;fill-rule:nonzero;stroke:none"
         id="path170" /><path
         d="m 31944,35022.8 c -216.6,49.7 -435.7,-120.7 -427.9,-342.8 1.5,-41.7 10.5,-83.3 30.6,-120 46.3,-84.3 222.6,-103.5 398.3,-96.8 104.8,4 210,4.5 314.3,-6.2 499.9,-51.6 831.1,-268.5 1025.7,-585.7 l 342,272 c -307.1,381.9 -838.7,686 -1683,879.5"
         style="fill:#3daaaf;fill-opacity:1;fill-rule:nonzero;stroke:none"
         id="path172" /><path
         d="m 32337.1,29807.1 c -55.5,-135.4 -100.4,-242 -139.2,-332.2 l 172,327.7 -32.8,4.5"
         style="fill:#42aace;fill-opacity:1;fill-rule:nonzero;stroke:none"
         id="path174" /><path
         d="m 31056.9,27299.8 c -85.6,-99.7 -177.3,-194.2 -272.2,-285.7 l 65.5,-108.3 206.7,394"
         style="fill:#42aace;fill-opacity:1;fill-rule:nonzero;stroke:none"
         id="path176" /><path
         d="m 30850.2,26905.8 -65.5,108.3 c -29.2,-28.3 -57.4,-57.5 -87.6,-84.9 -102.9,-93.4 -191.8,-190.6 -272.2,-291.9 l 200.3,-161 225,429.5"
         style="fill:#41afb6;fill-opacity:1;fill-rule:nonzero;stroke:none"
         id="path178" /><path
         d="m 30424.9,26637.3 c -29.9,-37.7 -58.7,-76.1 -86.1,-115.2 l 286.4,-45.8 -200.3,161"
         style="fill:#348aa3;fill-opacity:1;fill-rule:nonzero;stroke:none"
         id="path180" /><path
         d="m 30850.2,26905.8 -225,-429.5 581.6,-812.7 c 8.7,3 18,3.3 26.6,6.9 505.2,213.5 844.4,-319.8 994,-477.6 327.8,229.5 530.8,429.2 828.8,303.9 111.3,-67.9 242.2,-68.7 330.9,10.8 52.6,47.2 131.4,50.9 192.4,15.2 22.7,-13.3 69.1,-59.5 108.2,-141.6 24,435.2 -44.5,768.7 -154.1,1041.6 l -2683.4,483"
         style="fill:#42aace;fill-opacity:1;fill-rule:nonzero;stroke:none"
         id="path182" /><path
         d="m 30625.2,26476.3 -286.4,45.8 c -128.3,-182.2 -232.3,-379.3 -327.8,-599.6 129.1,-59.5 340.1,-321.2 257,-567.1 0,0 232.4,391.6 738.8,290.6 67.2,-13.4 135.6,-4.7 200,17.6 l -581.6,812.7"
         style="fill:#47bad4;fill-opacity:1;fill-rule:nonzero;stroke:none"
         id="path184" /><path
         d="m 32729.6,29341.3 c 27.5,140.5 59.6,273.9 94.6,397.9 l -454.3,63.4 359.7,-461.3"
         style="fill:#358ea6;fill-opacity:1;fill-rule:nonzero;stroke:none"
         id="path186" /><path
         d="m 32197.9,29474.9 c -118.3,-275.8 -183.6,-412 -350.4,-842.2 -188.5,-485.8 -453,-939.5 -790.6,-1332.9 l -206.7,-394 2683.4,-483 c -252.9,629.7 -728.1,932.5 -815,1385.3 -114.7,538.2 -78.9,1073.5 11,1533.2 l -359.7,461.3 -172,-327.7"
         style="fill:#47bad4;fill-opacity:1;fill-rule:nonzero;stroke:none"
         id="path188" /></g></g></svg>
