<?xml version="1.0" encoding="UTF-8" standalone="no"?>
<!-- Created with Inkscape (http://www.inkscape.org/) -->

<svg
   version="1.1"
   id="svg2"
   xml:space="preserve"
   width="6666.6665"
   height="6666.6665"
   viewBox="0 0 6666.6665 6666.6665"
   sodipodi:docname="logo.eps"
   xmlns:inkscape="http://www.inkscape.org/namespaces/inkscape"
   xmlns:sodipodi="http://sodipodi.sourceforge.net/DTD/sodipodi-0.dtd"
   xmlns="http://www.w3.org/2000/svg"
   xmlns:svg="http://www.w3.org/2000/svg"><defs
     id="defs6" /><sodipodi:namedview
     id="namedview4"
     pagecolor="#ffffff"
     bordercolor="#666666"
     borderopacity="1.0"
     inkscape:pageshadow="2"
     inkscape:pageopacity="0.0"
     inkscape:pagecheckerboard="0" /><g
     id="g8"
     inkscape:groupmode="layer"
     inkscape:label="ink_ext_XXXXXX"
     transform="matrix(1.3333333,0,0,-1.3333333,0,6666.6667)"><g
       id="g10"
       transform="scale(0.1)"><path
         d="M 50000,0 H 0 V 50000 H 50000 V 0"
         style="fill:#ffffff;fill-opacity:1;fill-rule:nonzero;stroke:none"
         id="path12" /><path
         d="m 21801.3,40980 c 7.2,-46.7 11.1,-91 17.3,-137.1 l 49.2,84.1 c -41.2,33.9 -66.5,53 -66.5,53"
         style="fill:#ef2f33;fill-opacity:1;fill-rule:nonzero;stroke:none"
         id="path14" /><path
         d="m 23564.7,36171.3 c 186.1,887.1 113.7,1666.7 -84.8,2325.9 l -2121.2,-1481 2206,-844.9"
         style="fill:#8b1631;fill-opacity:1;fill-rule:nonzero;stroke:none"
         id="path16" /><path
         d="m 21867.8,40927 -49.2,-84.1 c 218.2,-1601.8 -148.4,-2787.6 -570.2,-3784.4 l 110.3,-42.3 2121.2,1481 c -412.5,1370.6 -1356.5,2220.2 -1612.1,2429.8"
         style="fill:#ec1a38;fill-opacity:1;fill-rule:nonzero;stroke:none"
         id="path18" /><path
         d="m 21248.4,37058.5 c -24.4,-57.7 -49.1,-114.2 -73.7,-170.8 l 184,128.5 -110.3,42.3"
         style="fill:#d71741;fill-opacity:1;fill-rule:nonzero;stroke:none"
         id="path20" /><path
         d="m 21373.3,32359.7 c 411.1,442.8 751.1,870.5 1038.8,1285 l -2047.4,642.3 c 35.8,-591.8 313.1,-1208.9 1008.6,-1927.3"
         style="fill:#ec1747;fill-opacity:1;fill-rule:nonzero;stroke:none"
         id="path22" /><path
         d="m 21174.7,36887.7 c -420.2,-962.2 -861,-1756.1 -810,-2600.7 l 2047.4,-642.3 c 636.2,916.5 992,1761.3 1152.6,2526.6 l -2206,844.9 -184,-128.5"
         style="fill:#e8183b;fill-opacity:1;fill-rule:nonzero;stroke:none"
         id="path24" /><path
         d="m 25016.3,32774.2 -2310.6,-116.8 c -1219.8,-1451.6 -2769,-2548.6 -3669.2,-4278.1 l 2784.9,-1066.7 3194.9,5461.6"
         style="fill:#ef2f33;fill-opacity:1;fill-rule:nonzero;stroke:none"
         id="path26" /><path
         d="m 17401.6,29277.4 c -78,-59.6 -153.3,-122.1 -229,-184.2 l 210.8,-80.7 c 9.2,168.2 18.2,264.9 18.2,264.9"
         style="fill:#ef2f33;fill-opacity:1;fill-rule:nonzero;stroke:none"
         id="path28" /><path
         d="m 23691.2,34099 c -280.8,-530.6 -617.1,-1003.3 -985.5,-1441.6 l 2310.6,116.8 -1325.1,1324.8"
         style="fill:#f7ab0c;fill-opacity:1;fill-rule:nonzero;stroke:none"
         id="path30" /><path
         d="m 27603.4,25097.8 c 488.9,1691.6 777,3209.1 896.4,4562.3 l -4537.1,-3167.8 3640.7,-1394.5"
         style="fill:#8b1631;fill-opacity:1;fill-rule:nonzero;stroke:none"
         id="path32" /><path
         d="m 31141.2,23742.8 c -235.2,1171.7 -708.3,2429 -1480.5,3762 -546.9,-1320.1 -1257.1,-2117.4 -1721.6,-2535.6 l 3202.1,-1226.4"
         style="fill:#8b1631;fill-opacity:1;fill-rule:nonzero;stroke:none"
         id="path34" /><path
         d="m 21821.4,27312.6 2141.3,-820.3 4537.1,3167.8 c 226.2,2562 -142.6,4542.1 -851.7,6036 l -2631.8,-2921.9 -3194.9,-5461.6"
         style="fill:#ec1a38;fill-opacity:1;fill-rule:nonzero;stroke:none"
         id="path36" /><path
         d="m 24479.1,37052.6 c -64.9,-1188.8 -358.4,-2142.1 -787.9,-2953.6 l 1325.1,-1324.8 -537.2,4278.4"
         style="fill:#f79014;fill-opacity:1;fill-rule:nonzero;stroke:none"
         id="path38" /><path
         d="m 25016.3,32774.2 2631.8,2921.9 c -180.7,380.6 -383.1,730 -603.9,1049.1 l -2027.9,-3971"
         style="fill:#ee3043;fill-opacity:1;fill-rule:nonzero;stroke:none"
         id="path40" /><path
         d="m 27044.2,36745.2 c -735.1,1062.8 -1668.1,1793.4 -2644.6,2247.8 91.9,-714 111.5,-1353.8 79.5,-1940.4 l 537.2,-4278.4 2027.9,3971"
         style="fill:#f36f16;fill-opacity:1;fill-rule:nonzero;stroke:none"
         id="path42" /><path
         d="m 19533.1,23400.4 -1350.6,-6744.6 c 1125.8,-325.9 2460.8,-633 4076.1,-633 0.1,0 0.3,0 0.4,0 855.5,0 1746.4,86.7 2648.3,257.8 750.4,142.4 1448.1,367.4 2085.3,666.4 l -7459.5,6453.4"
         style="fill:#ef2b50;fill-opacity:1;fill-rule:nonzero;stroke:none"
         id="path44" /><path
         d="m 19533.1,23400.4 -5286.7,-3397.5 c 277.8,-934.8 739.3,-1827 1403.9,-2626.2 513.1,-102.5 1054.5,-270.1 1645.4,-453.4 279.4,-86.7 576.6,-177.7 886.8,-267.5 l 1350.6,6744.6"
         style="fill:#d71741;fill-opacity:1;fill-rule:nonzero;stroke:none"
         id="path46" /><path
         d="m 19533.1,23400.4 4429.6,3091.9 -2141.3,820.3 z"
         style="fill:#d71741;fill-opacity:1;fill-rule:nonzero;stroke:none"
         id="path48" /><path
         d="m 17383.4,29012.5 -210.8,80.7 c -721.1,-591.2 -1335.9,-1293.4 -1830.4,-2067.9 l 2502.1,-2164.2 c -538.7,1591.9 -498.4,3469.7 -460.9,4151.4"
         style="fill:#ec1a36;fill-opacity:1;fill-rule:nonzero;stroke:none"
         id="path50" /><path
         d="m 19533.1,23400.4 2288.3,3912.2 -2784.9,1066.7 c -531.9,-1021.7 -836.8,-2264.7 -711.5,-3933.9 l 1208.1,-1045"
         style="fill:#ec1a36;fill-opacity:1;fill-rule:nonzero;stroke:none"
         id="path52" /><path
         d="M 19533.1,23400.4 26992.6,16947 c 182.2,85.5 361.2,174.9 532.8,272.7 1373.6,782.8 2251,1807.9 2815.8,2789.8 l -10808.1,3390.9"
         style="fill:#ec1747;fill-opacity:1;fill-rule:nonzero;stroke:none"
         id="path54" /><path
         d="m 17844.3,24861.1 -2502.1,2164.2 c -402,-629.8 -723.9,-1306.6 -958.9,-2009.4 l 3966.3,-1244.2 c -208.3,332 -374.1,701.8 -505.3,1089.4"
         style="fill:#ed4626;fill-opacity:1;fill-rule:nonzero;stroke:none"
         id="path56" /><path
         d="m 19533.1,23400.4 -1208.1,1045 c 16.6,-221.7 42.2,-452.2 74.5,-689.4 l 1133.6,-355.6"
         style="fill:#ed4626;fill-opacity:1;fill-rule:nonzero;stroke:none"
         id="path58" /><path
         d="m 19533.1,23400.4 10808.1,-3390.9 c 614.7,1068.7 858.6,2086.3 952,2682.9 -28.6,341.6 -80.2,692.4 -152,1050.4 l -3202.1,1226.4 c -288.4,-259.6 -482.6,-374 -482.6,-374 52.2,170.3 98.7,335.8 146.9,502.6 l -3640.7,1394.5 -4429.6,-3091.9"
         style="fill:#e8183b;fill-opacity:1;fill-rule:nonzero;stroke:none"
         id="path60" /><path
         d="m 19533.1,23400.4 -1133.6,355.6 c 3.6,-26.7 4.8,-50.9 8.6,-77.8 -20.2,30.4 -39,62.3 -58.5,93.5 l -3966.3,1244.2 c -543,-1623.3 -621.2,-3382.7 -136.9,-5013 l 5286.7,3397.5"
         style="fill:#ec1842;fill-opacity:1;fill-rule:nonzero;stroke:none"
         id="path62" /><path
         d="m 17963.1,13090.3 c 447.3,-339.4 925.8,-672.4 1445.9,-980.4 l 1901.8,1196.3 -3347.7,-215.9"
         style="fill:#f3621e;fill-opacity:1;fill-rule:nonzero;stroke:none"
         id="path64" /><path
         d="m 12477.8,16153.5 c 1130.9,189.3 2094.8,-351.9 3137.5,-1160.7 l 2483.6,1394.6 c -2419.4,702.3 -3960.2,1509.8 -5621.1,-233.9"
         style="fill:#f25c20;fill-opacity:1;fill-rule:nonzero;stroke:none"
         id="path66" /><path
         d="m 20899.1,15813.3 c -1060.8,110.4 -1980.4,336.1 -2800.2,574.1 l -2483.6,-1394.6 c 717.9,-556.9 1473.9,-1239.4 2347.8,-1902.5 l 3347.7,215.9 -411.7,2507.1"
         style="fill:#f58615;fill-opacity:1;fill-rule:nonzero;stroke:none"
         id="path68" /><path
         d="m 23209.2,15778.4 c -838.7,-58.6 -1606.1,-38.4 -2310.1,34.9 l 411.7,-2507.1 1898.4,2472.2"
         style="fill:#f68d15;fill-opacity:1;fill-rule:nonzero;stroke:none"
         id="path70" /><path
         d="m 19409,12109.9 c 361.9,-214.3 746.1,-414.4 1152.1,-597 l 749.7,1793.3 -1901.8,-1196.3"
         style="fill:#db2c23;fill-opacity:1;fill-rule:nonzero;stroke:none"
         id="path72" /><path
         d="M 21310.8,13306.2 27786,10826 c 77.8,14 151.8,23.4 230.6,38.7 0,0 1110.1,219.7 2588.1,971.5 l 1169.2,1998.7 -10463.1,-528.7"
         style="fill:#ef2f33;fill-opacity:1;fill-rule:nonzero;stroke:none"
         id="path74" /><path
         d="m 31773.9,13834.9 -3514.8,3514.2 c -187.8,-128.9 -385.6,-253.6 -594.9,-372.9 -837.4,-477.2 -1757.7,-791.3 -2704.7,-971 -617.9,-117.2 -1198.8,-188.2 -1750.3,-226.8 l -1898.4,-2472.2 10463.1,528.7"
         style="fill:#f7ab0c;fill-opacity:1;fill-rule:nonzero;stroke:none"
         id="path76" /><path
         d="m 30604.7,11836.2 c 2222.2,1130.3 5275.4,3470 6657.9,8092.4 l -5488.7,-6093.7 -1169.2,-1998.7"
         style="fill:#ec1a38;fill-opacity:1;fill-rule:nonzero;stroke:none"
         id="path78" /><path
         d="m 30933.3,20530.4 c -482.8,-1057.1 -1297.6,-2236.3 -2674.2,-3181.3 l 3514.8,-3514.2 -840.6,6695.5"
         style="fill:#f79014;fill-opacity:1;fill-rule:nonzero;stroke:none"
         id="path80" /><path
         d="m 37262.6,19928.6 c 21.2,70.9 44.9,138.4 65.3,210.4 116.4,410.8 191.6,834.7 194.2,1261.7 5.8,932 -277,1694.3 -719.9,2280.3 l -5028.3,-9846.1 5488.7,6093.7"
         style="fill:#ee3043;fill-opacity:1;fill-rule:nonzero;stroke:none"
         id="path82" /><path
         d="m 31750.2,23697.2 c -72.4,-190.3 -109.3,-392.3 -125.2,-595.3 -30.5,-388.1 -159.2,-1405.4 -691.7,-2571.5 l 840.6,-6695.5 5028.3,9846.1 c -1379.3,1824.6 -4324.3,1927 -5052,16.2"
         style="fill:#f36f16;fill-opacity:1;fill-rule:nonzero;stroke:none"
         id="path84" /><path
         d="m 24452.6,10588.6 c 997.9,-52 2102.3,14.9 3333.4,237.4 l -6475.2,2480.2 3141.8,-2717.6"
         style="fill:#ec1a36;fill-opacity:1;fill-rule:nonzero;stroke:none"
         id="path86" /><path
         d="m 20561.1,11512.9 c 1098.1,-493.9 2371.9,-845.2 3891.5,-924.3 l -3141.8,2717.6 -749.7,-1793.3"
         style="fill:#ed4626;fill-opacity:1;fill-rule:nonzero;stroke:none"
         id="path88" /><path
         d="m 36076.2,31443.2 c -294,-534 -543.5,-1090.8 -770.9,-1656.3 -43.2,-107.4 -81.5,-201.3 -117.4,-288.9 l 46.7,-6.5 2264.9,4317.5 c 75.9,702.8 -45.2,1340.3 -472.4,1871.6 l -487.6,-387.9 c 565.5,-921.9 308.5,-2447.5 -463.3,-3849.5"
         style="fill:#6fd0eb;fill-opacity:1;fill-rule:nonzero;stroke:none"
         id="path90" /><path
         d="m 35882.4,29401 c 136.4,483.3 298.1,868.8 406.6,1091.2 587.5,1157.5 1101.3,2304.3 1210.5,3316.8 l -2264.9,-4317.5 647.8,-90.5"
         style="fill:#3fadb4;fill-opacity:1;fill-rule:nonzero;stroke:none"
         id="path92" /><path
         d="m 34627.4,36934.7 c -308.9,70.7 -621.2,-172.2 -610.1,-488.9 2.1,-59.4 15,-118.7 43.6,-171 66,-120.3 317.4,-147.6 567.9,-138.1 149.4,5.7 299.4,6.5 448.1,-8.8 712.8,-73.6 1185.1,-382.8 1462.6,-835.2 l 487.6,387.9 c -437.9,544.6 -1195.9,978.2 -2399.7,1254.1"
         style="fill:#3daaaf;fill-opacity:1;fill-rule:nonzero;stroke:none"
         id="path94" /><path
         d="m 35187.9,29498 c -79.2,-193.2 -143.2,-345.1 -198.4,-473.8 l 245.1,467.3 -46.7,6.5"
         style="fill:#42aace;fill-opacity:1;fill-rule:nonzero;stroke:none"
         id="path96" /><path
         d="m 33362.5,25922.9 c -122,-142.2 -252.7,-276.9 -388,-407.4 l 93.3,-154.3 294.7,561.7"
         style="fill:#42aace;fill-opacity:1;fill-rule:nonzero;stroke:none"
         id="path98" /><path
         d="m 33067.8,25361.2 -93.3,154.3 c -41.8,-40.2 -82,-81.9 -125,-121 -146.7,-133.2 -273.4,-271.8 -388,-416.1 l 285.5,-229.6 320.8,612.4"
         style="fill:#41afb6;fill-opacity:1;fill-rule:nonzero;stroke:none"
         id="path100" /><path
         d="m 32461.5,24978.4 c -42.8,-53.8 -83.8,-108.6 -122.9,-164.3 l 408.4,-65.3 -285.5,229.6"
         style="fill:#348aa3;fill-opacity:1;fill-rule:nonzero;stroke:none"
         id="path102" /><path
         d="m 33067.8,25361.2 -320.8,-612.4 829.3,-1158.9 c 12.4,4.3 25.7,4.8 37.9,9.9 720.4,304.4 1203.9,-456 1417.3,-681 467.3,327.3 756.8,612 1181.7,433.3 158.7,-96.8 345.4,-97.9 471.8,15.4 75,67.3 187.4,72.6 274.3,21.7 32.5,-19 98.5,-84.9 154.3,-201.9 34.2,620.5 -63.5,1096 -219.8,1485.2 l -3826,688.7"
         style="fill:#42aace;fill-opacity:1;fill-rule:nonzero;stroke:none"
         id="path104" /><path
         d="m 32747,24748.8 -408.4,65.3 c -182.8,-259.9 -331.1,-540.9 -467.3,-855.1 184,-84.7 484.8,-457.8 366.4,-808.4 0,0 331.3,558.3 1053.4,414.2 95.8,-19 193.3,-6.6 285.2,25.1 l -829.3,1158.9"
         style="fill:#47bad4;fill-opacity:1;fill-rule:nonzero;stroke:none"
         id="path106" /><path
         d="m 35747.5,28833.7 c 39.2,200.3 85,390.5 134.9,567.3 l -647.8,90.5 512.9,-657.8"
         style="fill:#358ea6;fill-opacity:1;fill-rule:nonzero;stroke:none"
         id="path108" /><path
         d="m 34989.5,29024.2 c -168.8,-393.2 -261.9,-587.4 -499.8,-1200.8 -268.6,-692.7 -645.9,-1339.5 -1127.2,-1900.5 l -294.7,-561.7 3826,-688.7 c -360.6,897.8 -1038.1,1329.6 -1161.9,1975.2 -163.7,767.3 -112.6,1530.7 15.6,2186 l -512.9,657.8 -245.1,-467.3"
         style="fill:#47bad4;fill-opacity:1;fill-rule:nonzero;stroke:none"
         id="path110" /></g></g></svg>
